<?xml version="1.0" encoding="UTF-8" standalone="no"?>
<svg width="1920px" height="1920px" viewBox="0 0 1920 1920" version="1.1" xmlns="http://www.w3.org/2000/svg" xmlns:xlink="http://www.w3.org/1999/xlink" xmlns:sketch="http://www.bohemiancoding.com/sketch/ns">
    <!-- Generator: sketchtool 3.4 (375) - http://www.bohemiancoding.com/sketch -->
    <title>100/back</title>
    <desc>Created with sketchtool.</desc>
    <defs></defs>
    <g id="Page-1" stroke="none" stroke-width="1" fill="none" fill-rule="evenodd" sketch:type="MSPage">
        <g id="100/back" sketch:type="MSArtboardGroup" fill="#000000">
            <path d="M1691.10114,1035.72228 L1155.82468,1570.99875 C1118.33411,1608.48932 1057.54775,1608.48719 1020.05974,1570.99918 C982.569409,1533.50885 982.56683,1472.72759 1020.06017,1435.23424 L1399.2355,1056.05892 L287.9929,1056.05892 C234.977485,1056.05892 192,1013.07498 192,960.058921 C192,907.039585 234.987752,864.058921 287.9929,864.058921 L1400.2355,864.058921 L1400.2355,864.058921 L1021.06017,484.883597 C983.569603,447.393026 983.571728,386.606675 1021.05974,349.118662 C1058.55007,311.62833 1119.33133,311.625751 1156.82468,349.119095 L1699.63961,891.934024 C1700.39283,892.681957 1701.13373,893.442297 1701.86196,894.214721 C1709.9295,902.765372 1716.12938,912.434878 1720.46166,922.7052 C1725.31584,934.187009 1728,946.809687 1728,960.058921 C1728,972.980198 1725.44679,985.305238 1720.8176,996.557227 C1716.13198,1007.97368 1709.1535,1018.66993 1699.88225,1027.94117 C1697.07895,1030.74448 1694.14542,1033.33818 1691.10114,1035.72228 L1691.10114,1035.72228 Z" id="Rectangle-2" sketch:type="MSShapeGroup" transform="translate(960.000000, 960.057966) scale(-1, 1) translate(-960.000000, -960.057966) "></path>
        </g>
    </g>
</svg>