<?xml version="1.0" encoding="UTF-8" standalone="no"?>
<svg width="1920px" height="1920px" viewBox="0 0 1920 1920" version="1.1" xmlns="http://www.w3.org/2000/svg" xmlns:xlink="http://www.w3.org/1999/xlink" xmlns:sketch="http://www.bohemiancoding.com/sketch/ns">
    <!-- Generator: sketchtool 3.4 (375) - http://www.bohemiancoding.com/sketch -->
    <title>100/check</title>
    <desc>Created with sketchtool.</desc>
    <defs></defs>
    <g id="Page-1" stroke="none" stroke-width="1" fill="none" fill-rule="evenodd" sketch:type="MSPage">
        <g id="100/check" sketch:type="MSArtboardGroup" fill="#000000">
            <path d="M1640.36403,327.400472 C1677.85106,289.913446 1738.63453,289.918445 1776.12255,327.406458 L1776.12255,327.406458 C1813.61288,364.89679 1813.61806,425.675448 1776.12853,463.164974 L686.46501,1552.8285 C648.977984,1590.31552 588.194507,1590.31052 550.706494,1552.82251 L550.706494,1552.82251 C513.216162,1515.33218 513.210982,1454.55352 550.700508,1417.06399 L1640.36403,327.400472 L1640.36403,327.400472 Z" id="Rectangle-1" sketch:type="MSShapeGroup"></path>
            <path d="M143.412988,1009.7645 C180.90332,972.27417 241.680498,972.26751 279.181241,1009.76825 L686.467245,1417.05426 C723.959649,1454.54666 723.959009,1515.3345 686.470996,1552.82251 L686.470996,1552.82251 C648.980664,1590.31284 588.203486,1590.3195 550.702743,1552.81876 L143.416739,1145.53275 C105.924335,1108.04035 105.924975,1047.25252 143.412988,1009.7645 L143.412988,1009.7645 L143.412988,1009.7645 Z" id="Rectangle-2" sketch:type="MSShapeGroup"></path>
        </g>
    </g>
</svg>